<?xml version="1.0" standalone="no"?><!DOCTYPE svg PUBLIC "-//W3C//DTD SVG 1.1//EN" "http://www.w3.org/Graphics/SVG/1.1/DTD/svg11.dtd"><svg t="1529499827267" class="icon" style="" viewBox="0 0 1568 1024" version="1.1" xmlns="http://www.w3.org/2000/svg" p-id="1466" xmlns:xlink="http://www.w3.org/1999/xlink" width="306.25" height="200"><defs><style type="text/css"></style></defs><path d="M0 0h1556.48v1024H0V0z" fill="#BC091C" p-id="1467"></path><path d="M0 885.024C0 960.608 63.2 1024 140.992 1024h1273.856c77.792 0 140.992-60.96 140.992-138.976v-543.68H-0.032v543.68z" fill="#BC091C" p-id="1468"></path><path d="M0 224.32h1555.872v572.96H0z" fill="#FFC400" p-id="1469"></path><path d="M277.152 441.28c0 2.432 2.432 2.432 0 0 2.432 2.432 2.432 2.432 4.864 2.432h2.432v2.432h2.432s0 2.432 2.432 2.432h-9.728v14.624h7.296c-2.432 0-2.432 0-2.432 2.432 0 0 0 2.432 2.432 2.432s2.432 2.432 2.432 2.432 0 2.432-2.432 2.432c0 0-2.432 0-2.432 2.432 0 0 0 2.432 2.432 2.432h38.912c2.432 0 2.432 0 2.432-2.432 0 0 0-2.432-2.432-2.432s-2.432-2.432-2.432-2.432 0-2.432 2.432-2.432c0 0 2.432 0 2.432-2.432 0 0 0-2.432-2.432-2.432h7.296v-14.624h-9.728c2.432 0 2.432 0 2.432-2.432h2.432v-2.432h2.432l4.864-4.864v-4.864l-2.432-2.432h-2.432v-2.432h-14.592v-7.328h2.432v-2.432h-2.432v-2.432h-2.432v2.432h-2.432v2.432h2.432v7.328h-17.024v2.432s-2.432 0-2.432 2.432l-2.432 2.432v4.864h-2.432c-14.592-2.432-14.592-2.432-12.16 0z m36.448 9.76c-2.432 0-7.296 0-9.728-2.432 4.864 0 7.296 0 9.728 2.432z m-12.16-2.432c-4.864 0-12.16 0-14.592 2.432 2.432-2.432 7.296-2.432 14.592-2.432z m26.752 246.24c0-2.432 0-2.432 0 0v-12.192c-2.432 0-7.296-2.432-7.296-4.864v-2.432c2.432 0 2.432 0 2.432-2.432 0 0 0-2.432-2.432-2.432H281.984c-2.432 0-2.432 0-2.432 2.432 0 0 0 2.432 2.432 2.432v2.432c0 2.432-2.432 4.864-7.296 4.864v12.192c-2.432 2.432-4.864 2.432-9.728 2.432v4.864c2.432 0 7.296 0 9.728-2.432-2.432 2.432-4.864 2.432-9.728 2.432v9.76c2.432 0 7.296 0 9.728-2.432-2.432 2.432-4.864 2.432-9.728 2.432v4.864c2.432 0 7.296 0 9.728-2.432 2.432 0 4.864-2.432 9.728-2.432 2.432 0 7.296 0 9.728 2.432s4.864 2.432 9.728 2.432c2.432 0 7.296 0 9.728-2.432 2.432 0 4.864-2.432 9.728-2.432 2.432 0 7.296 0 9.728 2.432-2.432 0-4.864-2.432-9.728-2.432-2.432 0-7.296 0-9.728 2.432-2.432 0-4.864 2.432-9.728 2.432-2.432 0-7.296 0-9.728-2.432-2.432 0-4.864-2.432-9.728-2.432-2.432 0-7.296 0-9.728 2.432s-4.864 2.432-9.728 2.432v4.864c2.432 0 7.296 0 9.728-2.432 2.432 0 4.864-2.432 9.728-2.432 2.432 0 7.296 0 9.728 2.432s4.864 2.432 9.728 2.432c2.432 0 7.296 0 9.728-2.432 2.432 0 4.864-2.432 9.728-2.432 2.432 0 7.296 0 9.728 2.432s4.864 2.432 9.728 2.432v-24.384c-9.728-2.432-12.16-2.432-14.592-2.432z m-17.024 0c-2.432 0-4.864 2.432-9.728 2.432-2.432 0-7.296 0-9.728-2.432h19.456z m-26.752 2.432z m43.776 2.464c-2.432 0-4.864-2.432-9.728-2.432-2.432 0-7.296 0-9.728 2.432s-4.864 2.432-9.728 2.432c-2.432 0-7.296 0-9.728-2.432 2.432 2.432 4.864 2.432 9.728 2.432 2.432 0 7.296 0 9.728-2.432 2.432 0 4.864-2.432 9.728-2.432s7.296 0 9.728 2.432z m291.712-263.328c0 2.432 0 2.432 0 0 0 2.432 0 2.432 0 0 0 2.432-2.432 2.432 0 0-2.432 2.432 0 2.432 0 2.432l4.864 4.864h2.432v2.432h2.432s0 2.432 2.432 2.432h-9.728v14.624h7.296c-2.432 0-2.432 0-2.432 2.432 0 0 0 2.432 2.432 2.432s2.432 2.432 2.432 2.432 0 2.432-2.432 2.432c0 0-2.432 0-2.432 2.432 0 0 0 2.432 2.432 2.432h38.912c2.432 0 2.432 0 2.432-2.432 0 0 0-2.432-2.432-2.432s-2.432-2.432-2.432-2.432 0-2.432 2.432-2.432c0 0 2.432 0 2.432-2.432 0 0 0-2.432-2.432-2.432h7.296v-14.624h-9.728c2.432 0 2.432 0 2.432-2.432h2.432v-2.432h2.432l4.864-4.864v-2.432c0-2.432-2.432-7.328-7.296-7.328h-2.432l2.432 2.432h-2.432a5.216 5.216 0 0 0-4.864-4.864h-4.864l4.864 2.432h-4.864v-2.432c0-2.432 0-2.432-2.432-4.864v-4.864h2.432v-2.432h-2.432v-2.432h-2.432v2.432h-2.432v2.432h2.432v4.864s-2.432 2.432-2.432 4.864v2.432h-4.864l4.864-2.432h-4.864a5.216 5.216 0 0 0-4.864 4.864h-2.432l2.432-2.432h-2.432c-14.592 2.432-19.456 4.864-19.456 7.328z m38.912 14.624c-2.432 0-7.296 0-9.728-2.432 2.432 0 7.296 0 9.728 2.432z m-14.592-2.432c2.432 0 2.432 0 0 0 2.432 0 2.432 0 0 0-4.864 0-12.16 0-14.592 2.432 4.864-2.432 9.728-2.432 14.592-2.432z m29.184 246.24c-2.432-2.432-2.432-2.432 0 0v-12.192c-2.432 0-7.296-2.432-7.296-4.864v-2.432c2.432 0 2.432 0 2.432-2.432 0 0 0-2.432-2.432-2.432H627.2c-2.432 0-2.432 0-2.432 2.432 0 0 0 2.432 2.432 2.432v2.432c0 2.432-2.432 4.864-7.296 4.864v12.192c-2.432 2.432-4.864 2.432-9.728 2.432v4.864c2.432 0 7.296 0 9.728-2.432-2.432 2.432-4.864 2.432-9.728 2.432v9.76c2.432 0 7.296 0 9.728-2.432-2.432 2.432-4.864 2.432-9.728 2.432v4.864c2.432 0 7.296 0 9.728-2.432 2.432 0 4.864-2.432 9.728-2.432 2.432 0 7.296 0 9.728 2.432s4.864 2.432 9.728 2.432c2.432 0 7.296 0 9.728-2.432 2.432 0 4.864-2.432 9.728-2.432 2.432 0 7.296 0 9.728 2.432-2.432 0-4.864-2.432-9.728-2.432-2.432 0-7.296 0-9.728 2.432-2.432 0-4.864 2.432-9.728 2.432-2.432 0-7.296 0-9.728-2.432-2.432 0-4.864-2.432-9.728-2.432-2.432 0-7.296 0-9.728 2.432s-4.864 2.432-9.728 2.432v4.864c2.432 0 7.296 0 9.728-2.432 2.432 0 4.864-2.432 9.728-2.432 2.432 0 7.296 0 9.728 2.432s4.864 2.432 9.728 2.432c2.432 0 7.296 0 9.728-2.432 2.432 0 4.864-2.432 9.728-2.432 2.432 0 7.296 0 9.728 2.432s4.864 2.432 9.728 2.432v-24.384c-9.728-2.432-12.16-2.432-14.592-2.432z m-19.456 0c-2.432 0-4.864 2.432-9.728 2.432-2.432 0-7.296 0-9.728-2.432h19.456z m19.456 4.896c-2.432 0-4.864-2.432-9.728-2.432-2.432 0-7.296 0-9.728 2.432s-4.864 2.432-9.728 2.432c-2.432 0-7.296 0-9.728-2.432 2.432 2.432 4.864 2.432 9.728 2.432 2.432 0 7.296 0 9.728-2.432 2.432 0 4.864-2.432 9.728-2.432 2.432 0 7.296 0 9.728 2.432z" fill="#BC091C" p-id="1470"></path><path d="M683.136 568.064s7.296-19.52 9.728-19.52c0-7.328-9.728-14.624-26.752-19.52v-46.336h-36.48v41.44c-14.592 0-29.184 2.432-36.48 4.864v-75.584h-85.088c14.592-2.432 29.184-4.864 41.312-7.328 2.432 0 2.432-2.432 2.432-2.432s0-2.432-2.432-2.432-2.432-2.432 0-4.864l4.864-2.432-2.432-2.432c2.432-2.432 2.432-2.432 4.864-2.432s2.432 0 2.432-2.432 0-2.432-2.432-2.432h-2.432c2.432 0 7.296 0 9.728-2.432l7.296-7.328h4.864c2.432-2.432 2.432-4.864 0-4.864 0 0 2.432-4.864 4.864-7.328s7.296 0 7.296 0c0-4.864-2.432-7.328-7.296-7.328v-2.432l2.432-2.432c2.432-4.864 4.864-9.76 4.864-14.624 0-9.76-7.296-17.056-14.592-24.384l2.432 2.432a60.832 60.832 0 0 0-31.616-9.76h-17.024l-2.432-2.432c-4.864-7.328-17.024-14.624-29.184-14.624-7.296 0-14.592 2.432-21.888 4.864 0 0 0-2.432-2.432-2.432h2.432c2.432 0 2.432 0 2.432-2.432s0-2.432-2.432-2.432-2.432 0-2.432 2.432c0 0-2.432-2.432-4.864-2.432 2.432 0 4.864-2.432 7.296-4.864v-4.864c0-4.864-2.432-7.328-7.296-9.76v-7.328h4.864v-4.864h-4.864V287.68h-4.864v4.864h-4.864v4.864h4.864v7.328c-4.864 0-7.296 4.864-7.296 9.76v4.864c2.432 2.432 4.864 4.864 7.296 4.864-2.432 0-2.432 2.432-4.864 2.432 0-2.432 0-2.432-2.432-2.432s-2.432 0-2.432 2.432 0 2.432 2.432 2.432h2.432s0 2.432-2.432 2.432a48.576 48.576 0 0 0-21.888-4.864c-12.16 0-24.32 4.864-29.184 14.624 2.432-2.432 2.432-4.864 4.864-4.864l-7.296 7.328H384c-12.16 0-21.888 2.432-29.184 7.328a26.816 26.816 0 0 0-14.592 24.384c0 4.864 2.432 9.76 4.864 14.624l2.432 2.432c-2.432 0-4.864 2.432-4.864 7.328h7.296c2.432 2.432 4.864 7.328 4.864 7.328 0 2.432 0 2.432 2.432 4.864s2.432 2.432 4.864 0c2.432 2.432 4.864 7.328 7.296 7.328 2.432 2.432 7.296 2.432 9.728 2.432-2.432 0-2.432 2.432-2.432 2.432 0 2.432 2.432 2.432 2.432 2.432s2.432 0 4.864 2.432l-2.432 2.432 4.864 2.432v4.864l-2.432 2.432c0 2.432 0 2.432 2.432 2.432 12.16 2.432 24.32 4.864 41.344 7.328h-85.088v75.584c-7.296-2.432-21.888-4.864-36.48-4.864v-41.44h-36.48v46.336c-17.024 4.864-29.184 12.192-26.752 19.52l9.728 19.52c0 4.864 7.296 7.328 19.456 7.328v-17.056h-9.728c2.432-2.432 4.864-2.432 9.728-4.864v43.872c-14.592 4.864-24.32 12.192-24.32 14.624l2.432 19.52c0 2.432 2.432 2.432 4.864 4.864 4.864 2.432 4.864 7.328 4.864 9.76 2.432-2.432 4.864-7.328 4.864-9.76 0-4.864-2.432-7.328-4.864-9.76a18.56 18.56 0 0 1 12.16-4.864v51.2h36.48v-68.256c12.16-7.328 17.024-12.192 17.024-14.624 0 0-2.432-17.056-2.432-19.52-2.432-2.432-7.296-2.432-14.592-4.864v17.056-34.144c14.592 0 29.184 2.432 36.48 7.328v112.16c0 4.864 2.432 12.192 4.864 17.056 2.432 2.432 2.432 4.864 4.864 9.76 0 2.432 2.432 2.432 2.432 4.864 4.864 4.864 12.16 9.76 17.024 14.624 24.32 12.192 55.904 19.52 85.088 19.52s60.768-7.328 85.088-19.52c12.16-7.328 21.888-17.056 26.752-31.68 2.432-4.864 2.432-12.192 2.432-17.056v-107.264c7.296-2.432 21.888-4.864 36.48-4.864v9.76c-7.296 0-12.16 2.432-14.592 4.864l-2.432 19.52c-2.432 2.432 4.864 7.328 17.024 14.624v68.256h36.48v-51.2c4.864 2.432 7.296 2.432 12.16 4.864-2.432 2.432-4.864 7.328-4.864 9.76 0 4.864 2.432 7.328 4.864 9.76-2.432-2.432 0-7.328 4.864-9.76 2.432-2.432 4.864-2.432 4.864-4.864l2.432-19.52c0-2.432-9.728-9.76-24.32-14.624v-43.872c2.432 2.432 7.296 2.432 9.728 4.864h-9.728v17.056c29.184 2.432 34.048 0 36.48-2.432z m-99.68-187.712s0-2.432 2.432-2.432l-2.432 2.432z m2.432-21.952s0 2.432 0 0c0 2.432 0 0 0 0s0-2.432 0 0c0-2.432 0 0 0 0z m-2.432-4.864s-2.432 0 0 0c-2.432 0 0 0 0 0z m-46.208-7.328h12.16c17.024 0 31.616 7.328 34.048 14.624 0 2.432 2.432 4.864 2.432 7.328s0 7.328-2.432 9.76c-2.432-2.432-7.296-4.864-12.16-7.328-12.16-4.864-19.456-4.864-26.752-4.864h-4.864v-4.864c2.432 0 2.432 0 2.432-2.432 0 0 0-2.432-2.432-2.432v-2.432s2.432 0 2.432-2.432 0-2.432-2.432-2.432-2.432-2.432-2.432-2.432z m-170.176 2.432z m41.344 0c-2.432 0-2.432 0-2.432 2.432 0 0 0 2.432 2.432 2.432v2.432s-2.432 0-2.432 2.432 0 2.432 2.432 2.432v4.864h-7.296c-7.296 0-14.592 2.432-24.32 4.864-4.864 2.432-7.296 4.864-12.16 7.328-2.432-2.432-2.432-4.864-2.432-9.76 0-2.432 0-4.864 2.432-7.328 4.864-9.76 17.024-14.624 34.048-14.624h12.16c-2.432 0-2.432 2.432-2.432 2.432z m-77.792 221.888l-2.432 2.432c2.432 0 2.432-2.432 2.432-2.432z m172.608-238.944c14.592 0 26.752 7.328 29.184 19.52v2.432c0 4.864-2.432 7.328-4.864 9.76-7.296 0-12.16-2.432-17.024-4.864a87.424 87.424 0 0 0-26.752-4.864v-14.624c2.432-4.864 9.728-7.328 19.456-7.328z m-68.064 26.816c-4.864 2.432-9.728 2.432-17.024 4.864-2.432-2.432-4.864-7.328-4.864-9.76v-2.432c0-9.76 12.16-19.52 29.184-19.52 7.296 0 14.592 2.432 19.456 4.864v14.624c-9.728 2.432-19.456 4.864-26.752 7.328z m38.88 73.152z m140.992 138.976z m12.16 7.296s-2.432 0 0 0c-2.432 0 0 0 0 0z" fill="#BC091C" p-id="1471"></path><path d="M352.512 390.208c0 1.408 1.152 2.56 2.56 2.56s2.56-1.152 2.56-2.56c0-1.408-1.152-2.56-2.56-2.56s-2.56 1.152-2.56 2.56zM350.08 385.344c0 1.408 1.152 2.56 2.56 2.56s2.56-1.152 2.56-2.56c0-1.408-1.152-2.56-2.56-2.56s-2.56 1.152-2.56 2.56zM347.648 378.016c0 1.408 1.152 2.56 2.56 2.56s2.56-1.152 2.56-2.56c0-1.408-1.152-2.56-2.56-2.56s-2.56 1.152-2.56 2.56zM347.648 370.72c0 1.408 1.152 2.56 2.56 2.56s2.56-1.152 2.56-2.56c0-1.408-1.152-2.56-2.56-2.56s-2.56 1.152-2.56 2.56zM347.648 360.96c0 1.408 1.152 2.56 2.56 2.56s2.56-1.152 2.56-2.56c0-1.408-1.152-2.56-2.56-2.56s-2.56 1.152-2.56 2.56zM352.512 356.096c0 1.408 1.152 2.56 2.56 2.56s2.56-1.152 2.56-2.56c0-1.408-1.152-2.56-2.56-2.56s-2.56 1.152-2.56 2.56zM357.376 348.768c0 1.408 1.152 2.56 2.56 2.56s2.56-1.152 2.56-2.56c0-1.408-1.152-2.56-2.56-2.56s-2.56 1.152-2.56 2.56zM364.64 343.904c0 1.408 1.152 2.56 2.56 2.56s2.56-1.152 2.56-2.56c0-1.408-1.152-2.56-2.56-2.56s-2.56 1.152-2.56 2.56zM369.504 341.44c0 1.408 1.152 2.56 2.56 2.56s2.56-1.152 2.56-2.56c0-1.408-1.152-2.56-2.56-2.56s-2.56 1.152-2.56 2.56zM379.232 339.008c0 1.408 1.152 2.56 2.56 2.56s2.56-1.152 2.56-2.56c0-1.408-1.152-2.56-2.56-2.56s-2.56 1.152-2.56 2.56zM386.528 336.576c0 1.408 1.152 2.56 2.56 2.56s2.56-1.152 2.56-2.56c0-1.408-1.152-2.56-2.56-2.56s-2.56 1.152-2.56 2.56zM393.824 336.576c0 1.408 1.152 2.56 2.56 2.56s2.56-1.152 2.56-2.56c0-1.408-1.152-2.56-2.56-2.56s-2.56 1.152-2.56 2.56zM401.12 336.576c0 1.408 1.152 2.56 2.56 2.56s2.56-1.152 2.56-2.56c0-1.408-1.152-2.56-2.56-2.56s-2.56 1.152-2.56 2.56zM410.848 336.576c0 1.408 1.152 2.56 2.56 2.56s2.56-1.152 2.56-2.56c0-1.408-1.152-2.56-2.56-2.56s-2.56 1.152-2.56 2.56zM415.712 331.712c0 1.408 1.152 2.56 2.56 2.56s2.56-1.152 2.56-2.56c0-1.408-1.152-2.56-2.56-2.56s-2.56 1.152-2.56 2.56zM423.008 329.28c0 1.408 1.152 2.56 2.56 2.56s2.56-1.152 2.56-2.56c0-1.408-1.152-2.56-2.56-2.56s-2.56 1.152-2.56 2.56zM430.304 326.816c0 1.408 1.152 2.56 2.56 2.56s2.56-1.152 2.56-2.56c0-1.408-1.152-2.56-2.56-2.56s-2.56 1.152-2.56 2.56zM437.6 324.384c0 1.408 1.152 2.56 2.56 2.56s2.56-1.152 2.56-2.56c0-1.408-1.152-2.56-2.56-2.56s-2.56 1.152-2.56 2.56zM444.864 324.384c0 1.408 1.152 2.56 2.56 2.56s2.56-1.152 2.56-2.56c0-1.408-1.152-2.56-2.56-2.56s-2.56 1.152-2.56 2.56zM454.592 326.816c0 1.408 1.152 2.56 2.56 2.56s2.56-1.152 2.56-2.56c0-1.408-1.152-2.56-2.56-2.56s-2.56 1.152-2.56 2.56zM486.208 326.816c0 1.408 1.152 2.56 2.56 2.56s2.56-1.152 2.56-2.56c0-1.408-1.152-2.56-2.56-2.56s-2.56 1.152-2.56 2.56zM493.504 324.384c0 1.408 1.152 2.56 2.56 2.56s2.56-1.152 2.56-2.56c0-1.408-1.152-2.56-2.56-2.56s-2.56 1.152-2.56 2.56zM503.232 324.384c0 1.408 1.152 2.56 2.56 2.56s2.56-1.152 2.56-2.56c0-1.408-1.152-2.56-2.56-2.56s-2.56 1.152-2.56 2.56zM510.528 326.816c0 0.928 0.48 1.76 1.28 2.208s1.76 0.448 2.56 0a2.56 2.56 0 0 0 0-4.416c-0.8-0.448-1.76-0.448-2.56 0s-1.28 1.312-1.28 2.208zM517.824 329.28c0 0.928 0.48 1.76 1.28 2.208s1.76 0.448 2.56 0a2.56 2.56 0 0 0 0-4.416c-0.8-0.448-1.76-0.448-2.56 0s-1.28 1.312-1.28 2.208zM525.12 331.712c0 1.408 1.152 2.56 2.56 2.56s2.56-1.152 2.56-2.56c0-1.408-1.152-2.56-2.56-2.56s-2.56 1.152-2.56 2.56zM529.952 336.576c0 1.408 1.152 2.56 2.56 2.56s2.56-1.152 2.56-2.56c0-1.408-1.152-2.56-2.56-2.56s-2.56 1.152-2.56 2.56zM539.68 336.576c0 0.928 0.48 1.76 1.28 2.208s1.76 0.448 2.56 0a2.56 2.56 0 0 0 0-4.416c-0.8-0.448-1.76-0.448-2.56 0s-1.28 1.312-1.28 2.208zM546.976 336.576c0 0.928 0.48 1.76 1.28 2.208s1.76 0.448 2.56 0a2.56 2.56 0 0 0 1.28-2.208c0-1.408-1.152-2.56-2.56-2.56s-2.56 1.152-2.56 2.56zM554.272 336.576c0 1.408 1.152 2.56 2.56 2.56s2.56-1.152 2.56-2.56c0-1.408-1.152-2.56-2.56-2.56s-2.56 1.152-2.56 2.56zM561.568 339.008c0 1.408 1.152 2.56 2.56 2.56s2.56-1.152 2.56-2.56c0-1.408-1.152-2.56-2.56-2.56s-2.56 1.152-2.56 2.56zM568.864 341.44c0 0.928 0.48 1.76 1.28 2.208s1.76 0.448 2.56 0a2.56 2.56 0 0 0 0-4.416c-0.8-0.448-1.76-0.448-2.56 0s-1.28 1.312-1.28 2.208zM576.16 343.904c0 1.408 1.152 2.56 2.56 2.56s2.56-1.152 2.56-2.56c0-1.408-1.152-2.56-2.56-2.56s-2.56 1.152-2.56 2.56zM583.456 348.768c0 1.408 1.152 2.56 2.56 2.56s2.56-1.152 2.56-2.56c0-1.408-1.152-2.56-2.56-2.56s-2.56 1.152-2.56 2.56zM588.32 356.096c0 0.928 0.48 1.76 1.28 2.208s1.76 0.448 2.56 0a2.56 2.56 0 0 0 0-4.416c-0.8-0.448-1.76-0.448-2.56 0s-1.28 1.312-1.28 2.208zM593.184 360.96c0 1.408 1.152 2.56 2.56 2.56s2.56-1.152 2.56-2.56c0-1.408-1.152-2.56-2.56-2.56s-2.56 1.152-2.56 2.56zM593.184 370.72c0 1.408 1.152 2.56 2.56 2.56s2.56-1.152 2.56-2.56c0-1.408-1.152-2.56-2.56-2.56s-2.56 1.152-2.56 2.56zM593.184 378.016c0 1.408 1.152 2.56 2.56 2.56s2.56-1.152 2.56-2.56c0-1.408-1.152-2.56-2.56-2.56s-2.56 1.152-2.56 2.56zM590.752 385.344c0 0.928 0.48 1.76 1.28 2.208s1.76 0.448 2.56 0a2.56 2.56 0 0 0 1.28-2.208c0-1.408-1.152-2.56-2.56-2.56s-2.56 1.152-2.56 2.56zM588.32 390.208c0 0.928 0.48 1.76 1.28 2.208s1.76 0.448 2.56 0a2.56 2.56 0 0 0 0-4.416c-0.8-0.448-1.76-0.448-2.56 0s-1.28 1.312-1.28 2.208z" fill="#BC091C" p-id="1472"></path></svg>